# xmcd CD database file generated by Grip 3.3.1
# 
# Track frame offsets:
#       150
#       23120
#       45782
#       58982
#       82232
#       99187
#       122230
# 
# Disc length: 1837 seconds
# 
# Revision: 2
# Processed by: cddbd v1.5.2PL0 Copyright (c) Steve Scherf et al.
# Submitted via: Grip 3.3.1
# 
DISCID=53072b07
DTITLE=Roachford - Permanent Shade of Blue - Disk 2 - Live
DYEAR=1900
DGENRE=Blues
TTITLE0=Lay Your Love on Me
TTITLE1=Johnny
TTITLE2=Innocent Eyes
TTITLE3=This Generation
TTITLE4=Cuddly Toy
TTITLE5=Children of the Revolution
TTITLE6=Manic Depression
EXTD=
EXTT0=
EXTT1=
EXTT2=
EXTT3=
EXTT4=
EXTT5=
EXTT6=
PLAYORDER=
